PathFileType	4	(X/Y/Z)	\\Move.snu.ac.kr\motion\Animal\091204_091205_Bird\091205_bird\Project 2\Capture day 2\Session 1\pigeon_009.trc
DataRate	CameraRate	NumFrames	NumMarkers	Units	OrigDataRate	OrigDataStartFrame	OrigNumFrames
240.0	240.0	8	14	mm	240.0	181	2292
Frame#	Time	14MarkersBird:Head			14MarkersBird:C_back			14MarkersBird:Spine			14MarkersBird:L-shoulder			14MarkersBird:L-elbow			14MarkersBird:L-wrist			14MarkersBird:L-hand			14MarkersBird:R-shoulder			14MarkersBird:R-elbow			14MarkersBird:R-Wrist			14MarkersBird:R-hand			14MarkersBird:C_Tail			14MarkersBird:L-Tale			14MarkersBird:R-Tale			
		X1	Y1	Z1	X2	Y2	Z2	X3	Y3	Z3	X4	Y4	Z4	X5	Y5	Z5	X6	Y6	Z6	X7	Y7	Z7	X8	Y8	Z8	X9	Y9	Z9	X10	Y10	Z10	X11	Y11	Z11	X12	Y12	Z12	X13	Y13	Z13	X14	Y14	Z14	

947	3.942	21.69933	2173.95996	-2730.29590	54.87043	2179.33252	-2682.26636	79.15924	2178.07886	-2634.32935	23.10002	2176.79004	-2692.29565	50.44860	2198.78394	-2673.09717	22.48252	2233.01050	-2685.02319	29.73296	2252.34668	-2663.30249	54.91002	2165.65039	-2710.44214	78.61906	2188.82959	-2696.98926	92.74409	2210.49268	-2723.92993	123.69980	2230.16040	-2710.78174	116.12117	2132.09180	-2522.72021	26.14147	2181.17529	-2544.90308	182.15495	2125.48291	-2620.07935	
948	3.946	15.11645	2168.81714	-2741.42725	48.56556	2173.45410	-2692.64795	71.88915	2171.92432	-2645.51782	16.46157	2170.82935	-2702.92749	43.33215	2193.71338	-2686.26270	17.06702	2229.96851	-2697.17261	28.35876	2252.28613	-2680.08228	48.76272	2159.87402	-2721.49683	71.60135	2183.25244	-2709.82275	86.21375	2208.15698	-2734.37866	113.01246	2235.83911	-2722.36597	109.61974	2128.71875	-2532.20020	17.65783	2176.57324	-2557.16309	176.67564	2122.34814	-2633.77515	
949	3.950	8.57430	2163.64038	-2752.48901	42.18261	2167.62549	-2703.44458	64.62565	2165.77881	-2656.78149	9.73158	2165.02734	-2713.63794	35.01770	2188.84961	-2698.51099	9.35406	2225.81299	-2708.36255	22.78541	2250.09106	-2695.60425	42.86482	2154.06079	-2732.59082	66.30949	2176.44897	-2722.03857	80.76917	2203.44214	-2745.84790	104.29482	2236.21802	-2736.33203	103.31852	2125.01611	-2541.88330	9.30833	2171.28491	-2569.27368	170.80968	2118.60059	-2646.96143	
950	3.954	2.08626	2158.43994	-2763.49292	35.55134	2161.89038	-2714.78101	57.36886	2159.64160	-2668.11865	2.93680	2159.41431	-2724.47974	25.67154	2183.90503	-2709.48120	-0.70709	2220.37549	-2718.25635	12.26910	2246.29932	-2708.92358	37.06880	2148.22949	-2743.66699	65.37157	2169.10352	-2732.47388	76.77090	2196.06226	-2758.19604	98.99016	2231.07397	-2752.38232	97.06561	2120.79736	-2551.89185	1.15659	2165.49390	-2581.22949	164.58246	2114.07593	-2659.44141	
951	3.958	-4.33794	2153.22217	-2774.46851	28.84557	2156.20313	-2726.14380	50.11896	2153.51294	-2679.53052	-3.87950	2153.92822	-2735.47925	15.44070	2178.62354	-2719.25464	-12.84770	2213.50781	-2726.82983	-3.03837	2240.99146	-2719.68140	31.23835	2142.29370	-2754.73657	61.81015	2160.71094	-2745.37671	74.17728	2185.97827	-2771.16357	97.25685	2220.57227	-2769.83618	90.70489	2115.97656	-2562.27051	-6.73511	2159.33081	-2592.99438	158.04439	2108.60254	-2671.15649	
952	3.963	-10.69970	2147.99438	-2785.45605	22.28699	2150.39648	-2736.87012	42.87611	2147.39136	-2691.01587	-10.66406	2148.42725	-2746.58496	4.43949	2172.83545	-2728.31079	-26.55154	2205.02832	-2734.46582	-22.08094	2233.58960	-2728.21851	25.32250	2136.14404	-2765.92358	57.33769	2152.46533	-2758.35449	72.36468	2173.41943	-2784.52734	97.92716	2205.14600	-2788.01050	84.13281	2110.61182	-2573.00122	-14.32345	2152.84644	-2604.52344	151.24445	2102.09521	-2682.17480	
953	3.967	-17.00498	2142.77417	-2796.51123	15.81416	2144.37866	-2746.91333	35.64053	2141.27710	-2702.57471	-17.37690	2142.77832	-2757.71460	-7.11537	2166.45728	-2737.24902	-41.19592	2194.71045	-2741.84375	-43.20966	2223.22412	-2735.46948	19.32981	2129.75830	-2777.39453	52.83846	2143.85645	-2771.57056	70.32018	2158.78979	-2798.19629	99.02948	2185.43115	-2806.41919	77.29746	2104.85034	-2584.03320	-21.60087	2146.05054	-2615.82031	144.21970	2094.68335	-2692.65015	
954	3.971	-23.25766	2137.58765	-2807.69775	9.19539	2138.32666	-2756.83984	28.41238	2135.16895	-2714.20654	-24.03112	2136.94995	-2768.85327	-18.85670	2159.50024	-2746.52393	-56.13382	2182.34351	-2749.72412	-64.67828	2209.34082	-2742.62598	13.25696	2123.23755	-2789.21094	47.50896	2134.88184	-2785.09497	66.98889	2142.51709	-2812.10693	98.48548	2162.26660	-2824.70117	70.19202	2098.83691	-2595.31250	-28.60211	2139.02222	-2626.97290	137.00119	2086.72217	-2702.78027	
